<?xml version="1.0" encoding="utf-8"?>
<!-- Generator: Adobe Illustrator 19.2.0, SVG Export Plug-In . SVG Version: 6.00 Build 0)  -->
<svg version="1.1" id="Layer_1" xmlns="http://www.w3.org/2000/svg" xmlns:xlink="http://www.w3.org/1999/xlink" x="0px" y="0px"
	 viewBox="0 0 578.9 330.8" style="enable-background:new 0 0 578.9 330.8;" xml:space="preserve">
<metadata><?xpacket begin="﻿" id="W5M0MpCehiHzreSzNTczkc9d"?>
<x:xmpmeta xmlns:x="adobe:ns:meta/" x:xmptk="Adobe XMP Core 5.6-c111 79.158366, 2015/09/25-01:12:00        ">
   <rdf:RDF xmlns:rdf="http://www.w3.org/1999/02/22-rdf-syntax-ns#">
      <rdf:Description rdf:about=""/>
   </rdf:RDF>
</x:xmpmeta>
                                                                                                    
                                                                                                    
                                                                                                    
                                                                                                    
                                                                                                    
                                                                                                    
                                                                                                    
                                                                                                    
                                                                                                    
                                                                                                    
                                                                                                    
                                                                                                    
                                                                                                    
                                                                                                    
                                                                                                    
                                                                                                    
                                                                                                    
                                                                                                    
                                                                                                    
                                                                                                    
                           
<?xpacket end="w"?></metadata>
<style type="text/css">
	.st0{fill:none;}
</style>
<g>
	<rect class="st0" width="578.9" height="330.8"/>
	<g>
		<g>
			<g>
				<path d="M178.4,91.9v3h-0.2c-0.4-2.9-4.1-2.8-4.8-2.8h-0.7v5.4h0.8c0.2,0,2.4,0,2.6-1.7h0.2v3.6h-0.2c-0.2-1.7-2.4-1.7-2.6-1.7
					h-0.8v3.6c0,1.7,0.6,1.9,1.3,1.9v0.2h-4.3v-0.2c0.7,0,0.9-0.7,0.9-1.8v-7.5c0-1-0.2-1.8-0.9-1.8v-0.2H178.4z"/>
				<path d="M186.8,96c0.4,0.4,0.4,1.1,0,1.5s-1.1,0.4-1.5,0c-0.2-0.2-0.3-0.5-0.3-0.7s-0.9,0-1.4,1.1v3.8c0,0.9,0.1,1.4,0.7,1.5
					v0.2h-3.1v-0.2c0.6-0.2,0.7-0.7,0.7-1.5v-4.1c0-0.6-0.1-0.8-0.8-1.1v-0.2l2.6-0.6v1.8c0.7-1.2,1.5-1.6,2.1-1.7
					C185.9,95.7,186.5,95.8,186.8,96z"/>
				<path d="M198.3,102.5c-0.1,0.5-0.8,1.1-1.7,1.1c0,0-1.4,0-1.5-1.4c-0.2,0.8-1.2,1.4-2.4,1.4c0,0-1.9,0-1.9-1.7s1.4-2,4.2-2.7v-1
					c0-1.7-0.9-2.6-2.1-2c-0.6,0.3-0.7,0.6-0.6,0.6c0.2,0,0.4,0.1,0.6,0.3c0.3,0.4,0.2,0.9-0.2,1.2c-0.4,0.3-0.9,0.2-1.2-0.2
					c-0.2-0.3-0.2-0.6-0.1-0.9c0.1-0.3,0.4-0.7,1.3-1.2c0.7-0.4,1.6-0.3,1.6-0.3c2,0,2.5,1.4,2.5,3.3v2.6c0,0,0,1.1,0.8,1.1
					c0,0,0.4,0,0.5-0.3L198.3,102.5z M192.6,101.6c0,0.2,0.1,1.2,1.2,1.2c0.7,0,1.1-0.5,1.3-0.9v-2.3
					C193.3,99.9,192.6,100.6,192.6,101.6z"/>
				<path d="M210.1,103.5H207v-0.2c0.6-0.2,0.7-0.7,0.7-1.5v-3.4c0-1-0.6-1.6-1.5-1.6c-0.7,0-1.5,0.8-1.5,1.4v3.6
					c0,0.9,0.1,1.3,0.7,1.5v0.2h-3.1v-0.2c0.6-0.2,0.6-0.7,0.6-1.5v-4.2c0-0.6-0.1-0.8-0.8-1.1v-0.2l2.6-0.6v1.7
					c0.4-1,1.6-1.7,2.6-1.7c1.3,0,2.2,0.6,2.2,2.6v3.4c0,0.9,0.1,1.4,0.7,1.5L210.1,103.5L210.1,103.5z"/>
				<path d="M221.2,101.5c-0.2,0.8-1.1,2.1-3.2,2.1c-2,0-3.6-1.8-3.6-4c0-1.9,1.5-3.9,4.1-3.9c1.4,0,2,0.6,2.2,0.9
					c0.2,0.2,0.3,0.6,0.2,1c-0.2,0.5-0.7,0.7-1.2,0.5s-0.7-0.7-0.5-1.2c0.1-0.2,0.3-0.4,0.5-0.5c0.1,0-0.3-0.4-1.1-0.4
					c-0.6,0-2.3,0.5-2.3,3.5c0,2,1.1,2.8,2.2,3c1,0.1,2.2-0.5,2.5-1.1L221.2,101.5z"/>
				<path d="M232.5,101.5c-0.2,0.8-1.2,2.1-3.2,2.1c-2.1,0-3.6-1.8-3.6-3.9c0-2.4,1.6-4,3.7-4s3.4,1.2,3.4,3.8h-5.2
					c0.1,1.9,1,2.8,2.2,3c1,0.1,2.2-0.3,2.6-1.1L232.5,101.5z M231,99.3c0-2.2-0.9-3.3-1.7-3.3c-1,0-1.8,1.5-1.8,3.3H231z"/>
				<path d="M316.5,99v0.7h-64.7V99H316.5z"/>
				<path d="M340,103.6c-3.6,0-5.5-2.6-5.5-5.9s1.9-6,5.5-6s5.5,2.8,5.5,6C345.5,101,343.6,103.6,340,103.6z M340,92
					c-2,0-3.2,1.3-3.2,5.8s1.2,5.6,3.2,5.6c1.9,0,3.1-1.1,3.1-5.6C343.1,93.2,341.9,92,340,92z M343.5,105.5c1.3,0.4,2-0.2,2.4-0.4
					l0.2,0.2l-1.5,1.3c-1.3,1-2.6,0.7-5.3-0.5l-1.4-0.6c-1.2-0.5-2,0.1-2.3,0.4l-0.2-0.2c2.7-2.3,5.5-1.1,5.5-1.1L343.5,105.5z"/>
				<path d="M358.1,103.2l-2.2,0.4c-0.4,0.1-0.4-0.3-0.4-0.3v-1.4c-0.3,0.9-1.6,1.7-2.6,1.7c-1.2,0-2.2-0.5-2.2-2.5v-3.6
					c0-1,0-1.1-0.9-1.2v-0.2l2.7-0.3v5.4c0,1.1,0.6,1.5,1.5,1.5c0.6,0,1.3-0.5,1.6-1.2v-3.9c0-1,0-1.2-0.8-1.2v-0.2l2.5-0.3v6.3
					C357.3,103,357.4,103.1,358.1,103.2L358.1,103.2z"/>
				<path d="M366.5,91.9l1.6,0.5l-4,2.2h-0.5L366.5,91.9z M369.1,101.5c-0.2,0.8-1.2,2.1-3.2,2.1c-2.1,0-3.6-1.8-3.6-3.9
					c0-2.4,1.6-4,3.7-4c2.2,0,3.4,1.2,3.4,3.8h-5.2c0.1,1.9,1,2.8,2.2,3c1,0.1,2.2-0.3,2.6-1.1L369.1,101.5z M367.7,99.3
					c0-2.2-0.9-3.3-1.7-3.3c-1,0-1.8,1.5-1.8,3.3H367.7z"/>
				<path d="M378.2,103.6c-1,0-1.8-0.3-2.4-0.8c-0.5,0.5-1.4,0.9-1.4,0.6V93c0-0.6-0.2-0.8-0.8-1v-0.2l2.6-0.5v5.8
					c0.5-0.9,1.7-1.4,2.5-1.4c2,0,3.5,1.6,3.5,4C382.1,102.3,380.4,103.6,378.2,103.6z M378,96.3c-1.2,0-1.8,0.9-1.8,2.1v2.3
					c0,1.9,1,2.6,2,2.6c1.2,0,1.9-0.9,1.9-3.4C380.1,97.3,379.4,96.3,378,96.3z"/>
				<path d="M393.5,101.5c-0.2,0.8-1.2,2.1-3.2,2.1c-2.1,0-3.6-1.8-3.6-3.9c0-2.4,1.6-4,3.7-4c2.2,0,3.4,1.2,3.4,3.8h-5.2
					c0.1,1.9,1,2.8,2.2,3c1,0.1,2.2-0.3,2.6-1.1L393.5,101.5z M392,99.3c0-2.2-0.9-3.3-1.7-3.3c-1,0-1.8,1.5-1.8,3.3H392z"/>
				<path d="M405.2,101.5c-0.2,0.8-1.1,2.1-3.2,2.1c-2,0-3.6-1.8-3.6-4c0-1.9,1.5-3.9,4.1-3.9c1.4,0,2,0.6,2.2,0.9
					c0.2,0.2,0.3,0.6,0.2,1c-0.2,0.5-0.7,0.7-1.2,0.5s-0.7-0.7-0.5-1.2c0.1-0.2,0.3-0.4,0.5-0.5c0.1,0-0.3-0.4-1.1-0.4
					c-0.6,0-2.3,0.5-2.3,3.5c0,2,1.1,2.8,2.2,3c1,0.1,2.2-0.5,2.5-1.1L405.2,101.5z"/>
			</g>
		</g>
		<g>
			<path d="M153.4,204.5c0-0.8,0.6-1.7,1.6-1.7c0.8,0,1.1,0.3,1.1,0.9c0,0.9-0.8,1.7-1.4,1.7C153.8,205.4,153.4,205,153.4,204.5z
				 M157.3,214.6L157,215c-0.7,1.2-3.3,5.3-6.3,5.3c-1.6,0-2.5-0.7-2.5-2.3c0-1.7,1.7-5.4,2.6-7.5c-1.8,2.5-6.9,9.3-11.3,9.3
				c-0.2,0-0.3,0-0.3-0.2c0-0.1,0-0.1,0.1-0.2c5.2,0,11.2-9.1,12.2-10.4c0.1-0.1,0.5-0.3,0.9-0.3c0.6,0,0.8,0.4,0.8,0.9
				c0,1.1-3.3,7.1-3.3,9.1c0,0.7,0.3,1,0.9,1c2.5,0,5.2-3.9,5.9-5.1c0.1-0.2,0.3-0.3,0.4-0.3S157.3,214.6,157.3,214.6z"/>
			<path d="M181.5,214.6l-0.3,0.4c-0.8,1.3-3.2,6-5.5,6c-1.3,0-2.4-0.8-2.4-2.6c0-3.1,3.2-7.4,3.2-8.7c0-0.2,0-0.4-0.3-0.4
				c-2.6,0-8,8.8-8.7,9.8c-0.3,0.7-0.5,1.2-0.5,1.4c0,0-0.4,0.2-0.8,0.2c-0.6,0-0.9-0.5-0.9-0.9c0-1.4,5.1-10.2,5.1-12.4
				c0-0.3-0.1-0.5-0.3-0.5c-1.7,0-6.5,8-9.4,12.2c-0.4,0.8-0.6,1.3-0.6,1.4c0,0-0.2,0.2-0.8,0.2c-0.5,0-0.8-0.4-0.8-0.9
				c0-1.1,4-7.8,4-9.8c0-0.5-0.1-0.7-0.5-0.7c-1.8,0-4,3.8-4.8,5.3c-0.1,0.2-0.3,0.3-0.4,0.3c-0.1,0-0.2-0.1-0.2-0.1l0.3-0.4
				c0.8-1.4,3-5.4,5.1-5.4c0.9,0,1.7,0.7,1.7,2c0,1.5-0.9,3.8-1.8,5.7c2.8-4.3,6.3-10.2,8.4-10.2c0.8,0,1.5,0.5,1.5,1.6
				c0,2-1.5,5.4-2.9,8.1c2-3,5.2-7.3,7.4-7.3c1,0,1.4,0.6,1.4,1.4c0,2.6-3,6.9-3,9.1c0,0.8,0.3,1.2,1.1,1.2c1.8,0,4.2-4.3,5.1-5.8
				c0.1-0.2,0.3-0.3,0.4-0.3S181.5,214.6,181.5,214.6z"/>
			<path d="M199.6,214.6l-0.3,0.4c-1.4,2.3-3.9,3.5-6.1,4.3c-1.4,1.5-3,2.5-4.2,2.5c-0.5,0-0.9-0.3-0.9-0.7c0-0.9,1.4-1.1,3.4-1.7
				c1.7-2.3,3.3-6.1,3.3-8.5c0-1.2-0.3-1.8-0.8-1.8c-2,0-7.4,7.7-9.3,11.3c-1.6,3.4-3.4,7-4.7,9.5c-2.5,5.4-4.8,9.5-6.9,9.5
				c-0.9,0-1.5-0.5-1.5-1.8c0-4.2,4.7-7.7,8.6-12.9c2.8-5.5,6.1-12.2,6.1-15c0-0.3-0.1-0.5-0.3-0.5c-1.6,0-3.7,3.6-4.6,5.3
				c-0.1,0.2-0.3,0.3-0.4,0.3c-0.1,0-0.2-0.1-0.2-0.1l0.3-0.4c0.9-1.4,3-5.4,5-5.4c1.1,0,2.1,0.5,2.1,1.9c0,1.3-0.8,3.7-2,6.4
				c2.4-3.7,6-8.4,7.8-8.4c2.1,0,3,1,3,2.7c0,2-1.5,4.9-3.3,7.1c1.8-0.7,4-1.9,5.2-3.9c0.1-0.2,0.3-0.3,0.4-0.3
				S199.6,214.6,199.6,214.6z M191.1,220c-1.5,0.5-2.6,0.8-2.6,1.2c0,0.2,0.2,0.3,0.4,0.3C189.6,221.5,190.4,220.9,191.1,220z
				 M177.9,229.8c0.5-0.9,1-2,1.6-3.2c-3.6,4.2-7.4,7.6-7.4,11.1c0,1,0.4,1.4,0.8,1.4C173.9,239.2,175.4,235.2,177.9,229.8z"/>
			<path d="M210.7,214.6l-0.3,0.4c-1.1,1.9-2.3,2.4-3.7,2.4c-0.2,0-0.3,0-0.4,0c-1.2,2.2-3,3.7-4.7,3.7c-1.8,0-3.2-1.1-3.2-3.1
				c0-3.9,3-6.8,5.3-7.7c0.5-1.1,1.3-1.7,2.2-1.7c1.4,0,2.2,1.2,2.2,3c0,1.9-0.6,3.9-1.4,5.5h0.2c1.4,0,2.3-0.4,3.4-2.3
				c0.1-0.2,0.3-0.3,0.4-0.3V214.6z M204.2,210.1c0.3-0.1,0.6-0.1,0.8-0.1c1,0,1.2,0.6,1.2,0.9c-0.6,0-1.6,0.4-2.6,1.2v0.6
				c0,2,0.9,3.9,2.5,4.3c0.9-1.7,1.5-3.6,1.5-5.4c0-1.3-0.6-2.6-1.8-2.6C205.2,209,204.6,209.3,204.2,210.1z M205.9,217.3
				c-1.7-0.5-2.7-2.4-2.7-4.6v-0.3c-1.5,1.4-2.8,3.7-2.8,6.6c0,1.3,0.5,1.8,1.1,1.8C203.2,220.8,204.8,219.3,205.9,217.3z"/>
			<path d="M222.9,214.6l-0.3,0.4c-0.9,1.4-3.1,5.9-5.9,5.9c-1.9,0-3.1-0.9-3.1-2.8c0-3.2,3.7-6.5,3.7-8.5c0-0.4-0.2-0.7-0.6-0.7
				c-1.1,0-2.5,1.5-3.9,1.6c-0.3,0.6-1.2,2.5-2.1,4c-0.1,0.2-0.3,0.3-0.4,0.3s-0.2-0.1-0.2-0.1l0.3-0.4c0.9-1.5,1.7-3.3,2-3.8
				c-0.6-0.1-1.2-0.6-1.2-1.5c0-0.8,0.4-1.2,1-1.2s0.9,0.6,0.9,1.1s-0.1,0.9-0.2,1.2c1.3-0.2,2.6-1.7,4-1.7c1.3,0,2.2,0.7,2.2,1.8
				c0,2.1-3.6,5.2-3.6,8.5c0,1.1,0.5,1.7,1.3,1.7c2.4,0,4.6-4.3,5.5-5.7c0.1-0.2,0.3-0.3,0.4-0.3
				C222.9,214.5,222.9,214.6,222.9,214.6z M212.6,210.2c0.2-0.4,0.3-0.9,0.3-1.2c0-0.5-0.2-0.8-0.6-0.8c-0.5,0-0.6,0.3-0.6,0.8
				C211.6,209.8,212.1,210.1,212.6,210.2z"/>
			<path d="M231.9,208.2c0,0.7-0.4,0.9-0.6,0.9c-0.1,0-0.2,0-0.2-0.1c0,0,0.3-0.2,0.3-0.8c0-0.6-0.3-1.1-1.4-1.1
				c-0.8,0-1.8,0.5-2.9,0.9c-1.6,3.4-3.5,8.1-3.5,11c0,1.4,0.6,1.7,1.2,1.7c2.5,0,4.9-5,5.6-5.9c0.1-0.2,0.3-0.3,0.4-0.3
				c0.1,0,0.2,0.1,0.2,0.1l-0.3,0.4c-1.1,1.8-3.2,6.1-5.9,6.1c-1.9,0-3.2-1-3.2-2.9c0-2.3,1.6-6.3,3.1-9.6c-1.3,0-2.3-0.6-2.3-1.7
				c0-0.8,0.4-1.1,0.6-1.1c0.1,0,0.2,0.1,0.2,0.2c0,0-0.3,0.3-0.3,0.9c0,1,0.9,1.4,2,1.4h0.2c1.2-2.7,2.3-4.9,2.3-5.2
				c0,0,0.3-0.1,0.7-0.1c0.6,0,1,0.4,1,1c0,0.3-0.7,1.7-1.6,3.7c1-0.4,1.8-0.9,2.7-0.9C231.4,206.8,231.9,207.4,231.9,208.2z"/>
			<path d="M245.1,214.6l-0.3,0.4c-1.1,1.7-3.8,6.5-6.3,6.5c-1.4,0-2.3-0.8-2.3-2.2c0-1.1,0.5-2.6,1.1-4.2c-1,1.4-2.6,3.3-4.3,3.3
				c-1.5,0-2.8-0.7-2.8-2.6c0-3.6,3.7-6.9,7-6.9c1.3,0,2.2,0.6,2.5,1c0.1-0.3,0.2-0.5,0.2-0.6c0.1-0.1,0.5-0.3,0.9-0.3
				c0.6,0,1,0.3,1,0.9s-4.4,8-4.4,10.1c0,0.7,0.3,1,1,1c2,0,4.8-4.6,5.9-6.3c0.1-0.2,0.3-0.3,0.4-0.3S245.1,214.6,245.1,214.6z
				 M238.1,213.6c0.6-1.3,1.3-2.5,1.7-3.3c-0.3-0.3-0.9-0.6-1.4-0.6c-3.9,0-5.9,4.6-5.9,7.2c0,0.8,0.3,1.3,0.8,1.3
				C235.2,218.1,237.9,214,238.1,213.6z"/>
			<path d="M254,208.2c0,0.7-0.4,0.9-0.6,0.9c-0.1,0-0.2,0-0.2-0.1c0,0,0.3-0.2,0.3-0.8c0-0.6-0.3-1.1-1.4-1.1
				c-0.8,0-1.8,0.5-2.9,0.9c-1.6,3.4-3.5,8.1-3.5,11c0,1.4,0.6,1.7,1.2,1.7c2.5,0,4.9-5,5.6-5.9c0.1-0.2,0.3-0.3,0.4-0.3
				s0.2,0.1,0.2,0.1l-0.3,0.4c-1.1,1.8-3.2,6.1-5.9,6.1c-1.9,0-3.2-1-3.2-2.9c0-2.3,1.6-6.3,3.1-9.6c-1.3,0-2.3-0.6-2.3-1.7
				c0-0.8,0.4-1.1,0.6-1.1c0.1,0,0.2,0.1,0.2,0.2c0,0-0.3,0.3-0.3,0.9c0,1,0.9,1.4,2,1.4h0.2c1.2-2.7,2.3-4.9,2.3-5.2
				c0,0,0.3-0.1,0.7-0.1c0.6,0,1,0.4,1,1c0,0.3-0.7,1.7-1.6,3.7c1-0.4,1.8-0.9,2.7-0.9C253.6,206.8,254,207.4,254,208.2z"/>
			<path d="M256.5,204.7c0-0.8,0.6-1.7,1.6-1.7c0.9,0,1.1,0.3,1.1,0.9c0,0.9-0.8,1.7-1.4,1.7C256.9,205.6,256.5,205.3,256.5,204.7z
				 M260.9,214.6l-0.3,0.4c-0.8,1.2-3.3,5.3-6.3,5.3c-1.7,0-2.5-0.7-2.5-2.3c0-2.2,3.1-8.2,3.2-8.8c0.1-0.1,0.5-0.3,0.8-0.3
				c0.6,0,0.8,0.4,0.8,0.9c0,1.1-3.3,7.1-3.3,9.1c0,0.7,0.3,1,1,1c2.5,0,5.1-3.9,5.9-5.1c0.1-0.2,0.3-0.3,0.4-0.3
				S260.9,214.6,260.9,214.6z"/>
			<path d="M272,214.6l-0.3,0.4c-1.1,1.9-2.3,2.4-3.7,2.4c-0.2,0-0.3,0-0.4,0c-1.2,2.2-3,3.7-4.7,3.7c-1.8,0-3.2-1.1-3.2-3.1
				c0-3.9,3-6.8,5.3-7.7c0.5-1.1,1.3-1.7,2.2-1.7c1.4,0,2.2,1.2,2.2,3c0,1.9-0.6,3.9-1.4,5.5h0.2c1.4,0,2.3-0.4,3.4-2.3
				c0.1-0.2,0.3-0.3,0.4-0.3S272,214.6,272,214.6z M265.4,210.1c0.3-0.1,0.6-0.1,0.8-0.1c1,0,1.2,0.6,1.2,0.9
				c-0.6,0-1.6,0.4-2.6,1.2v0.6c0,2,0.9,3.9,2.5,4.3c0.9-1.7,1.5-3.6,1.5-5.4c0-1.3-0.6-2.6-1.8-2.6
				C266.4,209,265.8,209.3,265.4,210.1z M267.2,217.3c-1.7-0.5-2.7-2.4-2.7-4.6v-0.3c-1.5,1.4-2.8,3.7-2.8,6.6
				c0,1.3,0.5,1.8,1.1,1.8C264.4,220.8,266,219.3,267.2,217.3z"/>
			<path d="M289.9,214.6l-0.3,0.4c-0.9,1.5-3.3,6-5.5,6c-1.3,0-2.6-0.8-2.6-2.4c0-3,3.1-7.4,3.1-8.7c0-0.3-0.1-0.6-0.5-0.6
				c-3.1,0-7.6,8.3-8.5,9.8c-0.3,0.8-0.6,1.3-0.6,1.4c0,0-0.2,0.2-0.7,0.2c-0.6,0-0.9-0.4-0.9-0.9c0-1,3.8-7.9,3.8-9.7
				c0-0.4-0.2-0.7-0.5-0.7c-1.8,0-4,3.8-4.8,5.3c-0.1,0.2-0.3,0.3-0.4,0.3s-0.2-0.1-0.2-0.1l0.3-0.4c0.8-1.4,3-5.4,5.1-5.4
				c0.9,0,1.7,0.7,1.7,2s-0.6,3.2-1.4,4.9c1.8-2.9,4.7-6.9,7-6.9c1.1,0,1.8,0.6,1.8,1.6c0,2.5-2.9,6.6-2.9,8.8
				c0,0.8,0.4,1.2,1.2,1.2c1.9,0,4.3-4.3,5.2-5.8c0.1-0.2,0.3-0.3,0.4-0.3S289.9,214.6,289.9,214.6z"/>
			<path d="M313.2,214.6l-0.3,0.4c-0.9,1.4-3.4,6-5.4,6c-1.5,0-2.7-0.9-2.7-2.9c0-0.7,0.1-1.6,0.3-2.6c-1,2-2.8,5.2-4.8,5.3
				c-1.7,0.1-3-0.8-3-3c0-5,3.9-8.5,7.2-8.5c0.9,0,1.5,0.3,2,0.6c2.3-7.5,6.6-16.4,9.3-16.4c0.8,0,1.2,0.5,1.2,1.2
				c0,2.1-3.3,9-9,16.9c-0.7,3-1.2,5.7-1.2,7.7c0,0.9,0.3,1.2,0.7,1.2c1.7,0,4.2-4.3,5.1-5.8c0.1-0.2,0.3-0.3,0.4-0.3
				S313.2,214.6,313.2,214.6z M308.3,210.7c5.3-7.5,8.3-14,8.3-15.9c0-0.6-0.3-0.8-0.8-0.8C314,193.9,310.3,202.8,308.3,210.7z
				 M305.4,214c0.3-1.1,0.6-2.4,1-3.7c-0.3-0.3-0.7-0.3-1.1-0.3c-2.7,0-5.9,4.9-5.9,8.5c0,1.6,0.4,2,1,2
				C302.4,220.3,304.8,215.4,305.4,214z"/>
			<path d="M322.5,214.5l-0.3,0.5c-1.8,2.9-3.7,5.8-6.6,5.8c-1.7,0-3.5-1.1-3.5-3.9c0-4.8,3.1-8,5.6-8c1.1,0,1.6,0.8,1.6,1.9
				c0,1.7-1.7,3.9-4.8,4c-0.2,1.1-0.3,2.1-0.3,3.1c0,1.4,0.6,2.5,1.5,2.5c2.8,0,4.6-2.9,6.3-5.7c0.1-0.2,0.3-0.4,0.4-0.4
				S322.5,214.5,322.5,214.5z M314.4,214.5c2.9-0.2,4.4-2.2,4.4-3.7c0-0.9-0.4-1.5-1.2-1.5C316.2,209.3,315,211.8,314.4,214.5z"/>
			<path d="M346.7,214.6l-0.3,0.4c-0.8,1.2-1.6,2.4-3.1,2.4c-0.4,0-0.9-0.1-1.2-0.3c-1.2,2.2-2.9,4-4.6,4s-3.2-0.7-3.2-2.9
				c0-2.8,2.6-6.8,2.6-8.1c0-0.6-0.3-0.8-0.7-0.8c-2,0-4.2,3.4-5.3,5.3c-0.1,0.2-0.3,0.3-0.4,0.3s-0.2-0.1-0.2-0.1l0.3-0.4
				c0.9-1.5,3.1-5.4,5.7-5.4c1.1,0,2,0.7,2,2.2c0,2.5-2.2,4.9-2.2,8.3c0,0.8,0.4,1.3,1.3,1.3c1.5,0,3.1-1.7,4.3-3.7
				c-1.1-0.7-1.7-2.1-1.7-4.5c0-2,0.7-3.5,2.1-3.5c1.1,0,1.7,0.9,1.7,2.5c0,1.5-0.6,3.6-1.6,5.4c0.3,0.1,0.7,0.2,1.1,0.2
				c1.4,0,2.1-1,2.8-2.3c0.1-0.2,0.3-0.3,0.4-0.3S346.7,214.6,346.7,214.6z M341.9,216.7c0.9-1.8,1.6-3.8,1.6-5.3
				c0-1.2-0.4-2.1-1.4-2.1c-1.1,0-1.7,1.3-1.7,3.1C340.4,214.7,341,216.1,341.9,216.7z"/>
			<path d="M350,204.7c0-0.8,0.6-1.7,1.6-1.7c0.9,0,1.1,0.3,1.1,0.9c0,0.9-0.8,1.7-1.4,1.7C350.4,205.6,350,205.3,350,204.7z
				 M354.4,214.6l-0.3,0.4c-0.8,1.2-3.3,5.3-6.3,5.3c-1.7,0-2.5-0.7-2.5-2.3c0-2.2,3.1-8.2,3.2-8.8c0.1-0.1,0.5-0.3,0.8-0.3
				c0.6,0,0.8,0.4,0.8,0.9c0,1.1-3.3,7.1-3.3,9.1c0,0.7,0.3,1,1,1c2.5,0,5.1-3.9,5.9-5.1c0.1-0.2,0.3-0.3,0.4-0.3
				S354.4,214.6,354.4,214.6z"/>
			<path d="M372.3,214.6L372,215c-0.9,1.5-3.3,6-5.5,6c-1.3,0-2.6-0.8-2.6-2.4c0-3,3.1-7.4,3.1-8.7c0-0.3-0.1-0.6-0.5-0.6
				c-3.1,0-7.6,8.3-8.5,9.8c-0.3,0.8-0.6,1.3-0.6,1.4c0,0-0.2,0.2-0.7,0.2c-0.6,0-0.9-0.4-0.9-0.9c0-1,3.8-7.9,3.8-9.7
				c0-0.4-0.2-0.7-0.5-0.7c-1.8,0-4,3.8-4.8,5.3c-0.1,0.2-0.3,0.3-0.4,0.3s-0.2-0.1-0.2-0.1l0.3-0.4c0.8-1.4,3-5.4,5.1-5.4
				c0.9,0,1.7,0.7,1.7,2s-0.6,3.2-1.4,4.9c1.8-2.9,4.7-6.9,7-6.9c1.1,0,1.8,0.6,1.8,1.6c0,2.5-2.9,6.6-2.9,8.8
				c0,0.8,0.4,1.2,1.2,1.2c1.9,0,4.3-4.3,5.2-5.8c0.1-0.2,0.3-0.3,0.4-0.3S372.3,214.6,372.3,214.6z"/>
			<path d="M381.3,214.6L381,215c-1.6,2.5-2.4,3.8-4.7,5.2c-0.7,2.5-2.8,3.7-4.5,3.7c-0.8,0-1.2-0.4-1.2-1.1c0-1.2,1.7-1.5,3.7-2.4
				c0.1-0.6,0.2-1.3,0.2-2.1c0-2.9-0.7-4.2-0.7-6.4c-0.6,1-1.2,1.9-1.6,2.6c-0.1,0.2-0.3,0.3-0.4,0.3s-0.2-0.1-0.2-0.1l0.3-0.4
				c0.5-0.8,1.2-2,1.9-3.2c0.2-2.9,1.9-3.6,2.9-3.6c0.2,0,0.3,0.1,0.3,0.2s0,0.1,0,0.1c-1.1,0-1.7,0.9-1.7,1.9
				c0,2.7,1.3,5.4,1.3,8.5c0,0.5,0,0.9-0.1,1.3c1.9-1.2,2.8-2.5,4.2-4.9c0.1-0.2,0.3-0.3,0.4-0.3
				C381.3,214.5,381.3,214.6,381.3,214.6z M374.3,220.9c-1.8,0.8-3.2,1.1-3.2,2c0,0.3,0.3,0.6,0.8,0.6
				C372.7,223.6,373.7,222.8,374.3,220.9z"/>
			<path d="M404.6,214.6l-0.3,0.4c-0.8,1.3-3.6,6.3-8.8,6.7c-0.2,0.7-0.5,1.4-0.7,2.1c0.4,1.5,1,3.8,1,7.6c0,4.4-0.8,8.2-3.5,8.2
				c-1.7,0-2.6-1.4-2.6-3.7c0-2.8,1.3-7.9,3.3-13.6c-0.1-0.1-0.2-0.2-0.3-0.3c-0.6-0.1-1.1-0.4-1.7-0.8c0-0.1,0.1-0.2,0.3-0.2
				c0.4,0,1.1,0.2,1.7,0.7h0.2c1.1-3.1,2.3-6.2,3.7-9.4c-2.1,2.5-6.8,7.6-11.3,7.6c-0.2,0-0.3,0-0.3-0.2c0-0.1,0-0.1,0.1-0.2
				c5.1,0,10.4-6.4,12.1-8.6c4.4-10.3,9.7-19.5,12.5-19.5c0.6,0,1.1,0.4,1.1,1.5c0,2.9-5,9.1-10.2,15.1l-0.5,1.2
				c-1.7,4.2-3.4,8.5-4.7,12.1c5-0.5,7.5-5.1,8.3-6.5c0.1-0.2,0.3-0.3,0.4-0.3C404.5,214.5,404.6,214.6,404.6,214.6z M401.3,206.9
				c4.9-5.7,9.4-11.4,9.4-14c0-0.8-0.3-1.1-0.9-1.1C408.2,191.7,404.7,198.8,401.3,206.9z M394.6,224.6c-1.7,5.4-3.1,10.3-3.1,12.7
				c0,1.4,0.3,1.9,0.9,1.9c2.3,0,3-4,3-7.7C395.5,228.2,395,226,394.6,224.6z"/>
			<path d="M407.8,204.7c0-0.8,0.6-1.7,1.6-1.7c0.9,0,1.1,0.3,1.1,0.9c0,0.9-0.8,1.7-1.4,1.7C408.2,205.6,407.8,205.3,407.8,204.7z
				 M412.2,214.6l-0.3,0.4c-0.8,1.2-3.3,5.3-6.3,5.3c-1.7,0-2.5-0.7-2.5-2.3c0-2.2,3.1-8.2,3.2-8.8c0.1-0.1,0.5-0.3,0.8-0.3
				c0.6,0,0.8,0.4,0.8,0.9c0,1.1-3.3,7.1-3.3,9.1c0,0.7,0.3,1,1,1c2.5,0,5.1-3.9,5.9-5.1c0.1-0.2,0.3-0.3,0.4-0.3
				S412.2,214.6,412.2,214.6z"/>
			<path d="M430.1,214.6l-0.3,0.4c-0.9,1.5-3.3,6-5.5,6c-1.3,0-2.6-0.8-2.6-2.4c0-3,3.1-7.4,3.1-8.7c0-0.3-0.1-0.6-0.5-0.6
				c-3.1,0-7.6,8.3-8.5,9.8c-0.3,0.8-0.6,1.3-0.6,1.4c0,0-0.2,0.2-0.7,0.2c-0.6,0-0.9-0.4-0.9-0.9c0-1,3.8-7.9,3.8-9.7
				c0-0.4-0.2-0.7-0.5-0.7c-1.8,0-4,3.8-4.8,5.3c-0.1,0.2-0.3,0.3-0.4,0.3s-0.2-0.1-0.2-0.1l0.3-0.4c0.8-1.4,3-5.4,5.1-5.4
				c0.9,0,1.7,0.7,1.7,2s-0.6,3.2-1.4,4.9c1.8-2.9,4.7-6.9,7-6.9c1.1,0,1.8,0.6,1.8,1.6c0,2.5-2.9,6.6-2.9,8.8
				c0,0.8,0.4,1.2,1.2,1.2c1.9,0,4.3-4.3,5.2-5.8c0.1-0.2,0.3-0.3,0.4-0.3S430.1,214.6,430.1,214.6z"/>
			<path d="M439.1,214.6l-0.3,0.4c-1.6,2.5-2.4,3.8-4.7,5.2c-0.7,2.5-2.8,3.7-4.5,3.7c-0.8,0-1.2-0.4-1.2-1.1c0-1.2,1.7-1.5,3.7-2.4
				c0.1-0.6,0.2-1.3,0.2-2.1c0-2.9-0.7-4.2-0.7-6.4c-0.6,1-1.2,1.9-1.6,2.6c-0.1,0.2-0.3,0.3-0.4,0.3s-0.2-0.1-0.2-0.1l0.3-0.4
				c0.5-0.8,1.2-2,1.9-3.2c0.2-2.9,1.9-3.6,2.9-3.6c0.2,0,0.3,0.1,0.3,0.2s0,0.1,0,0.1c-1.1,0-1.7,0.9-1.7,1.9
				c0,2.7,1.3,5.4,1.3,8.5c0,0.5,0,0.9-0.1,1.3c1.9-1.2,2.8-2.5,4.2-4.9c0.1-0.2,0.3-0.3,0.4-0.3S439.1,214.6,439.1,214.6z
				 M432.1,220.9c-1.8,0.8-3.2,1.1-3.2,2c0,0.3,0.3,0.6,0.8,0.6C430.5,223.6,431.6,222.8,432.1,220.9z"/>
		</g>
		<g>
			<g>
				<path d="M104,160.7l-0.3,8.9H77.4v-0.4l3.2-0.4v-28.9l-3.2-0.4v-0.4H92v0.4l-3.2,0.4v28.9h5.9c4.9,0,8.1-2.9,8.8-7.7l0.1-0.4
					H104z M85.2,154.4c0-4-0.3-8.9-0.5-11.5h-0.1c-0.2,2.6-0.5,7.5-0.5,11.5s0.3,8.9,0.5,11.5h0.1C85,163.3,85.2,158.4,85.2,154.4z"
					/>
				<path d="M129.6,161.8l-0.3,7.8h-22.2v-0.4l2.6-0.3v-23.8l-2.6-0.3v-0.4h21.7l0.3,7.8h-0.4l-0.1-0.5c-0.6-3.8-3.2-6.6-7.1-6.6
					h-4.8V157h2.4c2.8,0,4.1-2,4.6-4.5v-0.2h0.4v10.1h-0.4v-0.3c-0.4-2.5-1.8-4.4-4.6-4.4h-2.4v11.2h5.3c4,0,6.8-2.6,7.2-6.7v-0.4
					L129.6,161.8L129.6,161.8z M113.7,157c0-3.3-0.2-7.3-0.4-9.5h-0.1c-0.2,2.1-0.4,6.2-0.4,9.5s0.2,7.4,0.4,9.5h0.1
					C113.4,164.4,113.7,160.3,113.7,157z"/>
				<path d="M152.2,145.6l0.2,6.5H152l-0.1-0.6c-0.5-2-2.7-6.6-7.2-6.6c-2.9,0-4.6,0.9-4.6,3c0,5.8,13.8,6.7,13.8,14.3
					c0,4.8-4.2,7.8-10.1,7.8c-4.8,0-9.1-1.7-9.1-1.7l-0.4-6.3h0.4l0.3,0.9c0.8,2.1,4.2,6.3,8.8,6.3c3,0,4.5-1.1,4.5-3.5
					c0-6.3-13.8-6.5-13.8-14.1c0-6.1,5.7-7.5,10.1-7.5C149,144.2,152.1,145.6,152.2,145.6z M137.7,149.5L137.7,149.5
					c-0.8,3.9,2.2,5.2,6.3,7.8c4.1,2.5,6.6,4.2,6.3,7.8h0.1c1.1-3.7-1.8-5.9-5.9-8.5C140.4,154,137.7,153.1,137.7,149.5z"/>
				<path d="M200,160.4c0,5.9-6.1,9.3-15.2,9.3h-15.6v-0.4l3.3-0.4v-34.3l-3.3-0.4v-0.4h15c9.6,0,14.1,3.7,14.1,9.1
					c0,5.2-4.4,8.6-11,8.6v0.1C194.9,151.6,200,155.1,200,160.4z M180.8,134.6v16.6h4.6c2.7,0,3.8-3.3,3.8-8.3s-1.4-8.3-5-8.3
					L180.8,134.6L180.8,134.6z M193.5,143c0,3.4-1.6,5.5-2.8,6l0.1,0.1c1.3-0.4,4-2.2,4-6.1c0-3.8-2.8-5.4-4-5.9l-0.1,0.1
					C191.8,137.7,193.5,139.6,193.5,143z M177.2,151.7c0-4.2-0.3-10.3-0.6-14.2h-0.1c-0.2,3.9-0.6,10-0.6,14.2s0.3,10.3,0.6,14.2
					h0.1C176.9,162,177.2,155.9,177.2,151.7z M190.8,160.4c0-6.6-2.2-8.4-5.4-8.4h-4.6v16.8h3.9C188.3,168.8,190.8,167,190.8,160.4z
					 M196,160.4c0-3.8-2.8-5.4-4-5.8l-0.1,0.1c1.2,0.6,2.8,2.4,2.8,5.8c0,3.2-1.7,5.1-2.8,5.7l0.1,0.1
					C193.2,165.7,196,164.1,196,160.4z"/>
				<path d="M232.3,157.1c0,6.8-5.1,12.9-14.2,12.9c-9.2,0-14.4-6.1-14.4-12.9s5.2-12.9,14.4-12.9
					C227.3,144.2,232.3,150.3,232.3,157.1z M224.8,157.1c0-10-2.9-12.2-6.6-12.2c-3.9,0-6.9,2.2-6.9,12.2s3,12.2,6.9,12.2
					C221.9,169.3,224.8,167.1,224.8,157.1z M229.2,156.9c0-5.3-2.4-8.1-4.3-9.5l0,0c1.8,1.5,3.4,4.7,3.4,9.4c0,4.7-1.6,7.9-3.4,9.4
					l0,0C226.8,165,229.2,162.1,229.2,156.9z M207.8,156.9c0-4.7,1.6-7.9,3.4-9.4l0,0c-1.9,1.3-4.3,4.2-4.3,9.5
					c0,5.2,2.4,8.1,4.3,9.5l0,0C209.5,164.9,207.8,161.6,207.8,156.9z"/>
				<path d="M261.8,144.9c-1.8,0-2.7,1.9-2.7,3.3v12.6c0,6.7-4.7,9.2-9,9.2c-9.5,0-12.2-4.6-12.2-9.7v-15.1l-2.6-0.3v-0.4h12v0.4
					l-2.6,0.3v18.5c0,3.1,1.5,5.7,5.4,5.7c3.6,0,8.2-2.1,8.2-8.5v-12.6c0-1.4-0.9-3.3-2.7-3.3v-0.4h6.2L261.8,144.9L261.8,144.9z
					 M243.3,166.8c-2.3-3.1-1.6-7.1-1.6-10.7c0-2.5-0.2-6.1-0.4-9.3h-0.2c-0.2,3.2-0.4,6.8-0.4,9.3c0,3.6-0.3,7.7,2.4,10.8
					L243.3,166.8z"/>
				<path d="M292,165.1v0.5c0,2.5-1.8,4.3-5.7,4.3c-3.3,0-5.5-2-5.5-4.9v-3.6c0-2-1.3-3.4-3.6-3.4h-3v10.9l2.6,0.3v0.4h-12.1v-0.4
					l2.6-0.3v-23.8l-2.6-0.3v-0.4h12.4c7.9,0,10.8,3.1,10.8,6.8c0,3.4-2.5,6.4-8.9,6.4v0.1c5.8,0,8.5,2.4,8.5,5.9v1.9
					c0,1.4,0.4,2.4,1.7,2.4c1.4,0,2.1-1.1,2.2-2.4V165h0.6V165.1z M277.2,157.4c1.9,0,3.3-1,3.3-6.1c0-5.2-1.5-6.1-3.3-6.1h-3v12.2
					H277.2z M284.2,151.3c0,1.9-0.5,3.3-1.5,3.7l0,0c1-0.4,2.3-1.5,2.3-3.8s-1.3-3.4-2.3-3.8l0,0C283.7,148,284.2,149.4,284.2,151.3
					z M271.2,157c0-3.3-0.2-7.3-0.4-9.5h-0.1c-0.2,2.1-0.4,6.2-0.4,9.5s0.2,7.4,0.4,9.5h0.1C271,164.4,271.2,160.3,271.2,157z
					 M285.3,167c-0.8-0.6-0.8-1.8-0.8-3.1v-1.1c0-1.3-1-2.1-1.6-2.3l0,0c0.4,0.3,0.8,0.9,0.8,1.9v1.8
					C283.6,165.7,284.3,166.6,285.3,167L285.3,167z"/>
				<path d="M320.1,160l-2.5,0.3v7.4v3.4h-0.4l-0.5-2.7c-1.1,0.5-3.8,1.5-7.7,1.5c-10.6,0-15.3-6.1-15.3-12.9s4.6-12.9,15.3-12.9
					c5.2,0,8.3,1.7,8.3,1.7l0.3,6.5h-0.4l-0.3-1c-0.7-2.1-3-6.6-7.9-6.6c-4.5,0-7.7,2.2-7.7,12.2s3.2,12.2,7.7,12.2
					c0.6,0,1.1-0.1,1.7-0.2v-8.8l-2.5-0.3v-0.4h11.9V160z M297.8,156.9c0-4.7,1.6-7.9,3.4-9.4l0,0c-1.9,1.3-4.3,4.2-4.3,9.5
					c0,5.2,2.4,8.1,4.3,9.5l0,0C299.4,164.9,297.8,161.6,297.8,156.9z M314,164.4c0,0.9,0.2,2,0.3,2.6c0,0,0,0,0-0.1
					c0.1-0.6,0.3-1.7,0.3-2.6s-0.1-2.1-0.3-2.6l0,0C314.1,162.3,314,163.5,314,164.4z"/>
				<path d="M348.5,144.9c-1.8,0-2.7,1.9-2.7,3.3v12.6c0,6.7-4.7,9.2-9,9.2c-9.5,0-12.2-4.6-12.2-9.7v-15.1l-2.6-0.3v-0.4h12v0.4
					l-2.6,0.3v18.5c0,3.1,1.5,5.7,5.4,5.7c3.6,0,8.2-2.1,8.2-8.5v-12.6c0-1.4-0.9-3.3-2.7-3.3v-0.4h6.2L348.5,144.9L348.5,144.9z
					 M330,166.8c-2.3-3.1-1.6-7.1-1.6-10.7c0-2.5-0.2-6.1-0.4-9.3h-0.2c-0.2,3.2-0.4,6.8-0.4,9.3c0,3.6-0.3,7.7,2.4,10.8L330,166.8z
					"/>
				<path d="M360.9,145.2V169l2.6,0.3v0.4h-12.1v-0.4l2.6-0.3v-23.8l-2.6-0.3v-0.4h12.1v0.4L360.9,145.2z M358,157
					c0-3.3-0.2-7.3-0.4-9.5h-0.1c-0.2,2.1-0.4,6.2-0.4,9.5s0.2,7.4,0.4,9.5h0.1C357.7,164.4,358,160.3,358,157z"/>
				<path d="M393.2,160l-2.5,0.3v7.4v3.4h-0.4l-0.5-2.7c-1.1,0.5-3.8,1.5-7.7,1.5c-10.6,0-15.3-6.1-15.3-12.9s4.6-12.9,15.3-12.9
					c5.2,0,8.3,1.7,8.3,1.7l0.3,6.5h-0.4l-0.3-1c-0.7-2.1-3-6.6-7.9-6.6c-4.5,0-7.7,2.2-7.7,12.2s3.2,12.2,7.7,12.2
					c0.6,0,1.1-0.1,1.7-0.2v-8.8l-2.5-0.3v-0.4h11.9V160z M370.9,156.9c0-4.7,1.6-7.9,3.4-9.4l0,0c-1.9,1.3-4.3,4.2-4.3,9.5
					c0,5.2,2.4,8.1,4.3,9.5l0,0C372.5,164.9,370.9,161.6,370.9,156.9z M387.1,164.4c0,0.9,0.2,2,0.3,2.6c0,0,0,0,0-0.1
					c0.1-0.6,0.3-1.7,0.3-2.6s-0.1-2.1-0.3-2.6l0,0C387.2,162.3,387.1,163.5,387.1,164.4z"/>
				<path d="M421.4,144.9c-1.8,0-2.7,1.9-2.7,3.3V170h-1.4l-18.1-21.7h-0.1V166c0,1.4,0.9,3.3,2.7,3.3v0.4h-6.2v-0.4
					c1.8,0,2.7-1.9,2.7-3.3v-18.8l-1.6-2.2l-1.1-0.1v-0.4h9.1l13,15.8h0.1v-12.1c0-1.4-0.9-3.3-2.7-3.3v-0.4h6.2v0.4H421.4z
					 M416,163.5c-1.9-2.6-4.1-5.7-6.2-8.4c-2.1-2.6-4.5-5.3-6.7-7.8H403c1.9,2.6,4,5.7,6.2,8.3c2.1,2.7,4.6,5.4,6.8,7.8h0V163.5z"/>
				<path d="M453.2,157.1c0,6.8-5.1,12.9-14.2,12.9c-9.2,0-14.4-6.1-14.4-12.9s5.2-12.9,14.4-12.9
					C448.1,144.2,453.2,150.3,453.2,157.1z M445.6,157.1c0-10-2.9-12.2-6.6-12.2c-3.9,0-6.9,2.2-6.9,12.2s3,12.2,6.9,12.2
					C442.7,169.3,445.6,167.1,445.6,157.1z M450.1,156.9c0-5.3-2.4-8.1-4.3-9.5l0,0c1.8,1.5,3.4,4.7,3.4,9.4c0,4.7-1.6,7.9-3.4,9.4
					l0,0C447.6,165,450.1,162.1,450.1,156.9z M428.6,156.9c0-4.7,1.6-7.9,3.4-9.4l0,0c-1.9,1.3-4.3,4.2-4.3,9.5
					c0,5.2,2.4,8.1,4.3,9.5l0,0C430.3,164.9,428.6,161.6,428.6,156.9z"/>
				<path d="M478.5,162.3l-0.3,7.4h-21.7v-0.4l2.6-0.3v-23.8l-2.6-0.3v-0.4h12.1v0.4l-2.6,0.3V169h4.8c4,0,6.7-2.4,7.2-6.3v-0.3h0.5
					V162.3z M463,157c0-3.3-0.2-7.3-0.4-9.5h-0.1c-0.2,2.1-0.4,6.2-0.4,9.5s0.2,7.4,0.4,9.5h0.1C462.8,164.4,463,160.3,463,157z"/>
				<path d="M499.8,145.6l0.2,6.5h-0.4l-0.1-0.6c-0.5-2-2.7-6.6-7.2-6.6c-2.9,0-4.6,0.9-4.6,3c0,5.8,13.8,6.7,13.8,14.3
					c0,4.8-4.2,7.8-10.1,7.8c-4.8,0-9.1-1.7-9.1-1.7l-0.4-6.3h0.4l0.3,0.9c0.8,2.1,4.2,6.3,8.8,6.3c3,0,4.5-1.1,4.5-3.5
					c0-6.3-13.8-6.5-13.8-14.1c0-6.1,5.7-7.5,10.1-7.5C496.6,144.2,499.7,145.6,499.8,145.6z M485.3,149.5L485.3,149.5
					c-0.8,3.9,2.2,5.2,6.3,7.8c4.1,2.5,6.6,4.2,6.3,7.8h0.1c1.1-3.7-1.8-5.9-5.9-8.5C488,154,485.3,153.1,485.3,149.5z"/>
			</g>
		</g>
	</g>
</g>
</svg>
